<svg width="45" height="45" viewBox="0 0 45 45" fill="none" xmlns="http://www.w3.org/2000/svg">
<path d="M14.7559 21.0947L15.57 21.2417L15.867 20.4696L16.3648 19.1754L16.6487 18.437L15.9956 17.9907L10.1029 13.964L5.39017 9.16563L9.16563 5.39017L13.964 10.1029L17.9907 15.9956L18.437 16.6487L19.1753 16.3648L20.4696 15.867L21.2417 15.57L21.0947 14.7559L19.8164 7.67594V1H25.1836V7.67594L23.9053 14.7559L23.7583 15.57L24.5304 15.867L25.8246 16.3648L26.563 16.6487L27.0093 15.9956L31.036 10.1029L35.8344 5.39017L39.6098 9.16563L34.8971 13.964L29.0044 17.9907L28.3513 18.437L28.6352 19.1754L29.133 20.4696L29.43 21.2417L30.2441 21.0947L37.3241 19.8164H44V25.1836H37.3241L30.2441 23.9053L29.43 23.7583L29.133 24.5304L28.6352 25.8246L28.3513 26.563L29.0044 27.0093L34.8971 31.036L39.6098 35.8344L35.8344 39.6098L31.036 34.8971L27.0093 29.0044L26.563 28.3513L25.8246 28.6352L24.5304 29.133L23.7583 29.43L23.9053 30.2441L25.1836 37.3241V44H19.8164V37.3241L21.0947 30.2441L21.2417 29.43L20.4696 29.133L19.1754 28.6352L18.437 28.3513L17.9907 29.0044L13.964 34.8971L9.16563 39.6098L5.39017 35.8344L10.1029 31.036L15.9956 27.0093L16.6487 26.563L16.3648 25.8246L15.867 24.5304L15.57 23.7583L14.7559 23.9053L7.67594 25.1836H1V19.8164H7.67594L14.7559 21.0947Z" fill="#222222" stroke="white" stroke-width="2"/>
</svg>
