<svg width="66" height="66" viewBox="0 0 66 66" fill="none" xmlns="http://www.w3.org/2000/svg">
<path d="M10.0732 2.70703H3.60938C3.49086 2.70696 3.37349 2.73026 3.26398 2.77558C3.15448 2.8209 3.05497 2.88737 2.97117 2.97117C2.88737 3.05497 2.8209 3.15448 2.77558 3.26398C2.73026 3.37349 2.70696 3.49086 2.70703 3.60938V10.0732C2.70696 10.1918 2.73026 10.3091 2.77558 10.4186C2.8209 10.5281 2.88737 10.6277 2.97117 10.7115C3.05497 10.7953 3.15448 10.8617 3.26398 10.907C3.37349 10.9524 3.49086 10.9757 3.60938 10.9756H10.0732C10.1918 10.9757 10.3091 10.9524 10.4186 10.907C10.5281 10.8617 10.6277 10.7953 10.7115 10.7115C10.7953 10.6277 10.8617 10.5281 10.907 10.4186C10.9524 10.3091 10.9757 10.1918 10.9756 10.0732V3.60938C10.9757 3.49086 10.9524 3.37349 10.907 3.26398C10.8617 3.15448 10.7953 3.05497 10.7115 2.97117C10.6277 2.88737 10.5281 2.8209 10.4186 2.77558C10.3091 2.73026 10.1918 2.70696 10.0732 2.70703ZM9.17091 9.17091H4.51172V4.51172H9.17091V9.17091Z" fill="#222222"/>
<path d="M62.3906 2.70703H55.9268C55.8082 2.70696 55.6909 2.73026 55.5814 2.77558C55.4719 2.8209 55.3724 2.88737 55.2886 2.97117C55.2048 3.05497 55.1383 3.15448 55.093 3.26398C55.0476 3.37349 55.0243 3.49086 55.0244 3.60938V10.0732C55.0243 10.1918 55.0476 10.3091 55.093 10.4186C55.1383 10.5281 55.2048 10.6277 55.2886 10.7115C55.3724 10.7953 55.4719 10.8617 55.5814 10.907C55.6909 10.9524 55.8082 10.9757 55.9268 10.9756H62.3906C62.5092 10.9757 62.6265 10.9524 62.736 10.907C62.8455 10.8617 62.945 10.7953 63.0288 10.7115C63.1126 10.6277 63.1791 10.5281 63.2244 10.4186C63.2698 10.3091 63.293 10.1918 63.293 10.0732V3.60938C63.293 3.49086 63.2698 3.37349 63.2244 3.26398C63.1791 3.15448 63.1126 3.05497 63.0288 2.97117C62.945 2.88737 62.8455 2.8209 62.736 2.77558C62.6265 2.73026 62.5092 2.70696 62.3906 2.70703ZM61.4883 9.17091H56.8291V4.51172H61.4883V9.17091Z" fill="#222222"/>
<path d="M62.3906 55.0244H55.9268C55.8082 55.0243 55.6909 55.0476 55.5814 55.093C55.4719 55.1383 55.3724 55.2048 55.2886 55.2886C55.2048 55.3724 55.1383 55.4719 55.093 55.5814C55.0476 55.6909 55.0243 55.8082 55.0244 55.9268V62.3906C55.0243 62.5092 55.0476 62.6265 55.093 62.736C55.1383 62.8455 55.2048 62.945 55.2886 63.0288C55.3724 63.1126 55.4719 63.1791 55.5814 63.2244C55.6909 63.2698 55.8082 63.293 55.9268 63.293H62.3906C62.5092 63.293 62.6265 63.2698 62.736 63.2244C62.8455 63.1791 62.945 63.1126 63.0288 63.0288C63.1126 62.945 63.1791 62.8455 63.2244 62.736C63.2698 62.6265 63.293 62.5092 63.293 62.3906V55.9268C63.293 55.8082 63.2698 55.6909 63.2244 55.5814C63.1791 55.4719 63.1126 55.3724 63.0288 55.2886C62.945 55.2048 62.8455 55.1383 62.736 55.093C62.6265 55.0476 62.5092 55.0243 62.3906 55.0244ZM61.4883 61.4883H56.8291V56.8291H61.4883V61.4883Z" fill="#222222"/>
<path d="M10.0732 55.0244H3.60938C3.49086 55.0243 3.37349 55.0476 3.26398 55.093C3.15448 55.1383 3.05497 55.2048 2.97117 55.2886C2.88737 55.3724 2.8209 55.4719 2.77558 55.5814C2.73026 55.6909 2.70696 55.8082 2.70703 55.9268V62.3906C2.70696 62.5092 2.73026 62.6265 2.77558 62.736C2.8209 62.8455 2.88737 62.945 2.97117 63.0288C3.05497 63.1126 3.15448 63.1791 3.26398 63.2244C3.37349 63.2698 3.49086 63.293 3.60938 63.293H10.0732C10.1918 63.293 10.3091 63.2698 10.4186 63.2244C10.5281 63.1791 10.6277 63.1126 10.7115 63.0288C10.7953 62.945 10.8617 62.8455 10.907 62.736C10.9524 62.6265 10.9757 62.5092 10.9756 62.3906V55.9268C10.9757 55.8082 10.9524 55.6909 10.907 55.5814C10.8617 55.4719 10.7953 55.3724 10.7115 55.2886C10.6277 55.2048 10.5281 55.1383 10.4186 55.093C10.3091 55.0476 10.1918 55.0243 10.0732 55.0244ZM9.17091 61.4883H4.51172V56.8291H9.17091V61.4883Z" fill="#222222"/>
<path d="M28.4904 7.74414H30.6503C30.8896 7.74414 31.1191 7.64907 31.2884 7.47985C31.4576 7.31063 31.5527 7.08111 31.5527 6.8418C31.5527 6.60248 31.4576 6.37297 31.2884 6.20374C31.1191 6.03452 30.8896 5.93945 30.6503 5.93945H28.4904C28.251 5.93945 28.0215 6.03452 27.8523 6.20374C27.6831 6.37297 27.588 6.60248 27.588 6.8418C27.588 7.08111 27.6831 7.31063 27.8523 7.47985C28.0215 7.64907 28.251 7.74414 28.4904 7.74414Z" fill="#C4C4C4"/>
<path d="M21.6315 7.74414H23.7914C24.0307 7.74414 24.2603 7.64907 24.4295 7.47985C24.5987 7.31063 24.6938 7.08111 24.6938 6.8418C24.6938 6.60248 24.5987 6.37297 24.4295 6.20374C24.2603 6.03452 24.0307 5.93945 23.7914 5.93945H21.6315C21.3922 5.93945 21.1626 6.03452 20.9934 6.20374C20.8242 6.37297 20.7291 6.60248 20.7291 6.8418C20.7291 7.08111 20.8242 7.31063 20.9934 7.47985C21.1626 7.64907 21.3922 7.74414 21.6315 7.74414Z" fill="#C4C4C4"/>
<path d="M14.7721 7.74414H16.9326C17.1719 7.74414 17.4014 7.64907 17.5706 7.47985C17.7398 7.31063 17.8349 7.08111 17.8349 6.8418C17.8349 6.60248 17.7398 6.37297 17.5706 6.20374C17.4014 6.03452 17.1719 5.93945 16.9326 5.93945H14.7721C14.5328 5.93945 14.3033 6.03452 14.134 6.20374C13.9648 6.37297 13.8698 6.60248 13.8698 6.8418C13.8698 7.08111 13.9648 7.31063 14.134 7.47985C14.3033 7.64907 14.5328 7.74414 14.7721 7.74414Z" fill="#C4C4C4"/>
<path d="M51.2278 5.93945H49.0674C48.8281 5.93945 48.5985 6.03452 48.4293 6.20374C48.2601 6.37297 48.165 6.60248 48.165 6.8418C48.165 7.08111 48.2601 7.31063 48.4293 7.47985C48.5985 7.64907 48.8281 7.74414 49.0674 7.74414H51.2278C51.4672 7.74414 51.6967 7.64907 51.8659 7.47985C52.0351 7.31063 52.1302 7.08111 52.1302 6.8418C52.1302 6.60248 52.0351 6.37297 51.8659 6.20374C51.6967 6.03452 51.4672 5.93945 51.2278 5.93945Z" fill="#C4C4C4"/>
<path d="M42.208 7.74414H44.3685C44.6078 7.74414 44.8373 7.64907 45.0065 7.47985C45.1758 7.31063 45.2708 7.08111 45.2708 6.8418C45.2708 6.60248 45.1758 6.37297 45.0065 6.20374C44.8373 6.03452 44.6078 5.93945 44.3685 5.93945H42.208C41.9687 5.93945 41.7392 6.03452 41.57 6.20374C41.4007 6.37297 41.3057 6.60248 41.3057 6.8418C41.3057 7.08111 41.4007 7.31063 41.57 7.47985C41.7392 7.64907 41.9687 7.74414 42.208 7.74414Z" fill="#C4C4C4"/>
<path d="M35.3497 7.74414H37.5097C37.749 7.74414 37.9785 7.64907 38.1477 7.47985C38.317 7.31063 38.412 7.08111 38.412 6.8418C38.412 6.60248 38.317 6.37297 38.1477 6.20374C37.9785 6.03452 37.749 5.93945 37.5097 5.93945H35.3497C35.1104 5.93945 34.8809 6.03452 34.7117 6.20374C34.5425 6.37297 34.4474 6.60248 34.4474 6.8418C34.4474 7.08111 34.5425 7.31063 34.7117 7.47985C34.8809 7.64907 35.1104 7.74414 35.3497 7.74414Z" fill="#C4C4C4"/>
<path d="M30.6503 58.2559H28.4904C28.251 58.2559 28.0215 58.3509 27.8523 58.5201C27.6831 58.6894 27.588 58.9189 27.588 59.1582C27.588 59.3975 27.6831 59.627 27.8523 59.7963C28.0215 59.9655 28.251 60.0605 28.4904 60.0605H30.6503C30.8896 60.0605 31.1191 59.9655 31.2884 59.7963C31.4576 59.627 31.5527 59.3975 31.5527 59.1582C31.5527 58.9189 31.4576 58.6894 31.2884 58.5201C31.1191 58.3509 30.8896 58.2559 30.6503 58.2559Z" fill="#C4C4C4"/>
<path d="M23.7914 58.2559H21.6315C21.3922 58.2559 21.1626 58.3509 20.9934 58.5201C20.8242 58.6894 20.7291 58.9189 20.7291 59.1582C20.7291 59.3975 20.8242 59.627 20.9934 59.7963C21.1626 59.9655 21.3922 60.0605 21.6315 60.0605H23.7914C24.0307 60.0605 24.2603 59.9655 24.4295 59.7963C24.5987 59.627 24.6938 59.3975 24.6938 59.1582C24.6938 58.9189 24.5987 58.6894 24.4295 58.5201C24.2603 58.3509 24.0307 58.2559 23.7914 58.2559Z" fill="#C4C4C4"/>
<path d="M16.9326 58.2559H14.7721C14.5328 58.2559 14.3033 58.3509 14.134 58.5201C13.9648 58.6894 13.8698 58.9189 13.8698 59.1582C13.8698 59.3975 13.9648 59.627 14.134 59.7963C14.3033 59.9655 14.5328 60.0605 14.7721 60.0605H16.9326C17.1719 60.0605 17.4014 59.9655 17.5706 59.7963C17.7398 59.627 17.8349 59.3975 17.8349 59.1582C17.8349 58.9189 17.7398 58.6894 17.5706 58.5201C17.4014 58.3509 17.1719 58.2559 16.9326 58.2559Z" fill="#C4C4C4"/>
<path d="M51.2278 58.2559H49.0674C48.8281 58.2559 48.5985 58.3509 48.4293 58.5201C48.2601 58.6894 48.165 58.9189 48.165 59.1582C48.165 59.3975 48.2601 59.627 48.4293 59.7963C48.5985 59.9655 48.8281 60.0605 49.0674 60.0605H51.2278C51.4672 60.0605 51.6967 59.9655 51.8659 59.7963C52.0351 59.627 52.1302 59.3975 52.1302 59.1582C52.1302 58.9189 52.0351 58.6894 51.8659 58.5201C51.6967 58.3509 51.4672 58.2559 51.2278 58.2559Z" fill="#C4C4C4"/>
<path d="M44.3685 58.2559H42.208C41.9687 58.2559 41.7392 58.3509 41.57 58.5201C41.4007 58.6894 41.3057 58.9189 41.3057 59.1582C41.3057 59.3975 41.4007 59.627 41.57 59.7963C41.7392 59.9655 41.9687 60.0605 42.208 60.0605H44.3685C44.6078 60.0605 44.8373 59.9655 45.0065 59.7963C45.1758 59.627 45.2708 59.3975 45.2708 59.1582C45.2708 58.9189 45.1758 58.6894 45.0065 58.5201C44.8373 58.3509 44.6078 58.2559 44.3685 58.2559Z" fill="#C4C4C4"/>
<path d="M37.5097 58.2559H35.3497C35.1104 58.2559 34.8809 58.3509 34.7117 58.5201C34.5425 58.6894 34.4474 58.9189 34.4474 59.1582C34.4474 59.3975 34.5425 59.627 34.7117 59.7963C34.8809 59.9655 35.1104 60.0605 35.3497 60.0605H37.5097C37.749 60.0605 37.9785 59.9655 38.1477 59.7963C38.317 59.627 38.412 59.3975 38.412 59.1582C38.412 58.9189 38.317 58.6894 38.1477 58.5201C37.9785 58.3509 37.749 58.2559 37.5097 58.2559Z" fill="#C4C4C4"/>
<path d="M58.2559 30.6502C58.2559 30.8895 58.3509 31.119 58.5201 31.2882C58.6894 31.4575 58.9189 31.5525 59.1582 31.5525C59.3975 31.5525 59.627 31.4575 59.7963 31.2882C59.9655 31.119 60.0605 30.8895 60.0605 30.6502V28.4902C60.0605 28.2509 59.9655 28.0214 59.7963 27.8522C59.627 27.683 59.3975 27.5879 59.1582 27.5879C58.9189 27.5879 58.6894 27.683 58.5201 27.8522C58.3509 28.0214 58.2559 28.2509 58.2559 28.4902V30.6502Z" fill="#C4C4C4"/>
<path d="M58.2559 23.7915C58.2559 24.0309 58.3509 24.2604 58.5201 24.4296C58.6894 24.5988 58.9189 24.6939 59.1582 24.6939C59.3975 24.6939 59.627 24.5988 59.7963 24.4296C59.9655 24.2604 60.0605 24.0309 60.0605 23.7915V21.6316C60.0605 21.3923 59.9655 21.1628 59.7963 20.9935C59.627 20.8243 59.3975 20.7292 59.1582 20.7292C58.9189 20.7292 58.6894 20.8243 58.5201 20.9935C58.3509 21.1628 58.2559 21.3923 58.2559 21.6316V23.7915Z" fill="#C4C4C4"/>
<path d="M59.1582 17.835C59.2767 17.8351 59.3941 17.8118 59.5036 17.7665C59.6131 17.7212 59.7126 17.6547 59.7964 17.5709C59.8802 17.4871 59.9467 17.3876 59.992 17.2781C60.0373 17.1686 60.0606 17.0512 60.0605 16.9327V14.7722C60.0605 14.5329 59.9655 14.3034 59.7963 14.1342C59.627 13.9649 59.3975 13.8699 59.1582 13.8699C58.9189 13.8699 58.6894 13.9649 58.5201 14.1342C58.3509 14.3034 58.2559 14.5329 58.2559 14.7722V16.9327C58.2559 17.172 58.3509 17.4015 58.5201 17.5707C58.6894 17.74 58.9189 17.835 59.1582 17.835Z" fill="#C4C4C4"/>
<path d="M58.2559 51.2278C58.2559 51.4672 58.3509 51.6967 58.5201 51.8659C58.6894 52.0351 58.9189 52.1302 59.1582 52.1302C59.3975 52.1302 59.627 52.0351 59.7963 51.8659C59.9655 51.6967 60.0605 51.4672 60.0605 51.2278V49.0674C60.0605 48.8281 59.9655 48.5985 59.7963 48.4293C59.627 48.2601 59.3975 48.165 59.1582 48.165C58.9189 48.165 58.6894 48.2601 58.5201 48.4293C58.3509 48.5985 58.2559 48.8281 58.2559 49.0674V51.2278Z" fill="#C4C4C4"/>
<path d="M58.2559 44.3684C58.2559 44.6078 58.3509 44.8373 58.5201 45.0065C58.6894 45.1757 58.9189 45.2708 59.1582 45.2708C59.3975 45.2708 59.627 45.1757 59.7963 45.0065C59.9655 44.8373 60.0605 44.6078 60.0605 44.3684V42.2085C60.0605 41.9692 59.9655 41.7397 59.7963 41.5704C59.627 41.4012 59.3975 41.3062 59.1582 41.3062C58.9189 41.3062 58.6894 41.4012 58.5201 41.5704C58.3509 41.7397 58.2559 41.9692 58.2559 42.2085V44.3684Z" fill="#C4C4C4"/>
<path d="M58.2559 37.5096C58.2559 37.7489 58.3509 37.9784 58.5201 38.1476C58.6894 38.3168 58.9189 38.4119 59.1582 38.4119C59.3975 38.4119 59.627 38.3168 59.7963 38.1476C59.9655 37.9784 60.0605 37.7489 60.0605 37.5096V35.3496C60.0605 35.1103 59.9655 34.8808 59.7963 34.7116C59.627 34.5423 59.3975 34.4473 59.1582 34.4473C58.9189 34.4473 58.6894 34.5423 58.5201 34.7116C58.3509 34.8808 58.2559 35.1103 58.2559 35.3496V37.5096Z" fill="#C4C4C4"/>
<path d="M5.93945 30.6502C5.93945 30.8895 6.03452 31.119 6.20374 31.2882C6.37297 31.4575 6.60248 31.5525 6.8418 31.5525C7.08111 31.5525 7.31063 31.4575 7.47985 31.2882C7.64907 31.119 7.74414 30.8895 7.74414 30.6502V28.4902C7.74414 28.2509 7.64907 28.0214 7.47985 27.8522C7.31063 27.683 7.08111 27.5879 6.8418 27.5879C6.60248 27.5879 6.37297 27.683 6.20374 27.8522C6.03452 28.0214 5.93945 28.2509 5.93945 28.4902V30.6502Z" fill="#C4C4C4"/>
<path d="M5.93945 23.7915C5.93945 24.0309 6.03452 24.2604 6.20374 24.4296C6.37297 24.5988 6.60248 24.6939 6.8418 24.6939C7.08111 24.6939 7.31063 24.5988 7.47985 24.4296C7.64907 24.2604 7.74414 24.0309 7.74414 23.7915V21.6316C7.74414 21.3923 7.64907 21.1628 7.47985 20.9935C7.31063 20.8243 7.08111 20.7292 6.8418 20.7292C6.60248 20.7292 6.37297 20.8243 6.20374 20.9935C6.03452 21.1628 5.93945 21.3923 5.93945 21.6316V23.7915Z" fill="#C4C4C4"/>
<path d="M6.8418 17.835C7.08111 17.835 7.31063 17.74 7.47985 17.5707C7.64907 17.4015 7.74414 17.172 7.74414 16.9327V14.7722C7.74414 14.5329 7.64907 14.3034 7.47985 14.1342C7.31063 13.9649 7.08111 13.8699 6.8418 13.8699C6.60248 13.8699 6.37297 13.9649 6.20374 14.1342C6.03452 14.3034 5.93945 14.5329 5.93945 14.7722V16.9327C5.93939 17.0512 5.96268 17.1686 6.008 17.2781C6.05333 17.3876 6.11979 17.4871 6.20359 17.5709C6.2874 17.6547 6.3869 17.7212 6.4964 17.7665C6.60591 17.8118 6.72328 17.8351 6.8418 17.835Z" fill="#C4C4C4"/>
<path d="M5.93945 51.2278C5.93945 51.4672 6.03452 51.6967 6.20374 51.8659C6.37297 52.0351 6.60248 52.1302 6.8418 52.1302C7.08111 52.1302 7.31063 52.0351 7.47985 51.8659C7.64907 51.6967 7.74414 51.4672 7.74414 51.2278V49.0674C7.74414 48.8281 7.64907 48.5985 7.47985 48.4293C7.31063 48.2601 7.08111 48.165 6.8418 48.165C6.60248 48.165 6.37297 48.2601 6.20374 48.4293C6.03452 48.5985 5.93945 48.8281 5.93945 49.0674V51.2278Z" fill="#C4C4C4"/>
<path d="M5.93945 44.3684C5.93945 44.6078 6.03452 44.8373 6.20374 45.0065C6.37297 45.1757 6.60248 45.2708 6.8418 45.2708C7.08111 45.2708 7.31063 45.1757 7.47985 45.0065C7.64907 44.8373 7.74414 44.6078 7.74414 44.3684V42.2085C7.74414 41.9692 7.64907 41.7397 7.47985 41.5704C7.31063 41.4012 7.08111 41.3062 6.8418 41.3062C6.60248 41.3062 6.37297 41.4012 6.20374 41.5704C6.03452 41.7397 5.93945 41.9692 5.93945 42.2085V44.3684Z" fill="#C4C4C4"/>
<path d="M5.93945 37.5096C5.93945 37.7489 6.03452 37.9784 6.20374 38.1476C6.37297 38.3168 6.60248 38.4119 6.8418 38.4119C7.08111 38.4119 7.31063 38.3168 7.47985 38.1476C7.64907 37.9784 7.74414 37.7489 7.74414 37.5096V35.3496C7.74414 35.1103 7.64907 34.8808 7.47985 34.7116C7.31063 34.5423 7.08111 34.4473 6.8418 34.4473C6.60248 34.4473 6.37297 34.5423 6.20374 34.7116C6.03452 34.8808 5.93945 35.1103 5.93945 35.3496V37.5096Z" fill="#C4C4C4"/>
<path d="M50.9123 43.0459V22.954C50.9124 22.789 50.8672 22.6271 50.7816 22.486C50.6961 22.3449 50.5734 22.23 50.4271 22.1538L33.4171 13.2974C33.2883 13.2303 33.1452 13.1953 33 13.1953C32.8548 13.1953 32.7117 13.2303 32.5829 13.2974L15.5719 22.1538C15.4255 22.23 15.3029 22.3449 15.2173 22.486C15.1318 22.6271 15.0866 22.789 15.0867 22.954V43.0459C15.0866 43.2109 15.1318 43.3727 15.2173 43.5138C15.3029 43.655 15.4255 43.7699 15.5719 43.8461L32.5818 52.7025C32.7106 52.7695 32.8537 52.8046 32.999 52.8046C33.1442 52.8046 33.2873 52.7695 33.4161 52.7025L50.4281 43.8461C50.5743 43.7697 50.6967 43.6547 50.7821 43.5137C50.8674 43.3726 50.9125 43.2108 50.9123 43.0459ZM33 15.115L48.0562 22.9525L33 30.7931L17.9437 22.9556L33 15.115ZM16.8924 24.4406L32.0977 32.3575V50.4152L16.8924 42.4988V24.4406ZM33.9023 50.4152V32.3575L49.1076 24.4406V42.4988L33.9023 50.4152Z" fill="#222222"/>
</svg>
