<svg width="66" height="66" viewBox="0 0 66 66" fill="none" xmlns="http://www.w3.org/2000/svg">
<g clip-path="url(#clip0_18_677)">
<path d="M24.7338 42.2349H53.6653C54.2004 42.2349 54.634 41.8012 54.634 41.2662V18.5343C54.634 18.2371 54.4975 17.9562 54.2639 17.7727L39.7981 6.40672C39.4467 6.1307 38.9525 6.1307 38.6011 6.40672L24.1353 17.7727C23.9015 17.9563 23.7651 18.2371 23.7651 18.5343V41.2662C23.7651 41.8012 24.1987 42.2349 24.7338 42.2349ZM35.0019 40.2975V25.7026H43.3972V40.2975H35.0019ZM25.7025 19.0052L39.1996 8.40041L52.6966 19.0052V40.2975H45.3346V24.7339C45.3346 24.1989 44.901 23.7652 44.3659 23.7652H34.0332C33.4981 23.7652 33.0645 24.1989 33.0645 24.7339V40.2975H25.7025V19.0052Z" fill="#C4C4C4"/>
<path d="M59.865 40.2976C59.3299 40.2976 58.8963 40.7313 58.8963 41.2662C58.8963 41.8012 59.3299 42.2349 59.865 42.2349H63.9981C64.5332 42.2349 64.9668 41.8012 64.9668 41.2662C64.9668 40.7313 64.5332 40.2976 63.9981 40.2976H62.9002V8.13708H63.9981C64.5332 8.13708 64.9668 7.70337 64.9668 7.1684C64.9668 6.63342 64.5332 6.19971 63.9981 6.19971H59.865C59.3299 6.19971 58.8963 6.63342 58.8963 7.1684C58.8963 7.70337 59.3299 8.13708 59.865 8.13708H60.9628V40.2976H59.865Z" fill="#999999"/>
<path d="M65.0313 49.5969H53.6654C53.1303 49.5969 52.6967 50.0306 52.6967 50.5656C52.6967 51.1005 53.1303 51.5342 53.6654 51.5342H64.0626V64.0626H58.7671V60.8982C58.7671 60.3633 58.3335 59.9296 57.7984 59.9296C57.2633 59.9296 56.8297 60.3633 56.8297 60.8982V64.0626H50.501V59.865C50.501 59.33 50.0674 58.8963 49.5323 58.8963C48.9972 58.8963 48.5636 59.33 48.5636 59.865V64.0626H42.2348V60.8982C42.2348 60.3633 41.8012 59.9296 41.2661 59.9296C40.731 59.9296 40.2975 60.3633 40.2975 60.8982V64.0626H33.9687V59.865C33.9687 59.33 33.5351 58.8963 33 58.8963C32.4649 58.8963 32.0313 59.33 32.0313 59.865V64.0626H25.7025V60.8982C25.7025 60.3633 25.269 59.9296 24.7339 59.9296C24.1988 59.9296 23.7652 60.3633 23.7652 60.8982V64.0626H17.4364V59.865C17.4364 59.33 17.0028 58.8963 16.4677 58.8963C15.9326 58.8963 15.499 59.33 15.499 59.865V64.0626H9.17025V60.8982C9.17025 60.3633 8.73667 59.9296 8.20157 59.9296C7.66646 59.9296 7.23288 60.3633 7.23288 60.8982V64.0626H1.93738V58.7639C1.95882 58.7653 1.98013 58.7671 2.00196 58.7671H5.10176C5.63687 58.7671 6.07045 58.3334 6.07045 57.7984C6.07045 57.2635 5.63687 56.8297 5.10176 56.8297H2.00196C1.98013 56.8297 1.95882 56.8316 1.93738 56.833V50.4977C1.95882 50.4992 1.98013 50.501 2.00196 50.501H7.1683C7.7034 50.501 8.13699 50.0673 8.13699 49.5323C8.13699 48.9973 7.7034 48.5636 7.1683 48.5636H2.00196C1.98013 48.5636 1.95882 48.5654 1.93738 48.5668V42.2316C1.95882 42.233 1.98013 42.2348 2.00196 42.2348H5.10176C5.63687 42.2348 6.07045 41.8011 6.07045 41.2661C6.07045 40.7312 5.63687 40.2975 5.10176 40.2975H2.00196C1.98013 40.2975 1.95882 40.2993 1.93738 40.3007V33.9655C1.95882 33.9669 1.98013 33.9687 2.00196 33.9687H7.1683C7.7034 33.9687 8.13699 33.535 8.13699 33C8.13699 32.465 7.7034 32.0313 7.1683 32.0313H2.00196C1.98013 32.0313 1.95882 32.0331 1.93738 32.0345V25.6993C1.95882 25.7007 1.98013 25.7025 2.00196 25.7025H5.10176C5.63687 25.7025 6.07045 25.2688 6.07045 24.7339C6.07045 24.1989 5.63687 23.7652 5.10176 23.7652H2.00196C1.98013 23.7652 1.95882 23.767 1.93738 23.7684V17.4332C1.95882 17.4346 1.98013 17.4364 2.00196 17.4364H7.1683C7.7034 17.4364 8.13699 17.0027 8.13699 16.4677C8.13699 15.9327 7.7034 15.499 7.1683 15.499H2.00196C1.98013 15.499 1.95882 15.5008 1.93738 15.5023V9.16703C1.95882 9.16845 1.98013 9.17025 2.00196 9.17025H5.10176C5.63687 9.17025 6.07045 8.73654 6.07045 8.20157C6.07045 7.66659 5.63687 7.23288 5.10176 7.23288H2.00196C1.98013 7.23288 1.95882 7.23468 1.93738 7.23611V1.93738H14.4658V50.5656C14.4658 51.1005 14.8993 51.5342 15.4344 51.5342H48.9427C49.4778 51.5342 49.9114 51.1005 49.9114 50.5656C49.9114 50.0306 49.4778 49.5969 48.9427 49.5969H16.4031V0.968689C16.4031 0.433714 15.9695 0 15.4344 0H0.968689C0.433585 0 0 0.433714 0 0.968689V65.0313C0 65.5663 0.433585 66 0.968689 66H65.0313C65.5664 66 66 65.5663 66 65.0313V50.5656C66 50.0306 65.5664 49.5969 65.0313 49.5969Z" fill="#222222"/>
</g>
<defs>
<clipPath id="clip0_18_677">
<rect width="66" height="66" fill="white"/>
</clipPath>
</defs>
</svg>
