<svg width="66" height="66" viewBox="0 0 66 66" fill="none" xmlns="http://www.w3.org/2000/svg">
<path d="M9.28125 42.2812C8.66937 42.2812 8.07122 42.4627 7.56246 42.8026C7.05369 43.1426 6.65716 43.6258 6.423 44.1911C6.18884 44.7564 6.12757 45.3784 6.24695 45.9786C6.36632 46.5787 6.66097 47.1299 7.09364 47.5626C7.52631 47.9953 8.07756 48.2899 8.67769 48.4093C9.27782 48.5287 9.89987 48.4674 10.4652 48.2333C11.0305 47.9991 11.5137 47.6026 11.8536 47.0938C12.1936 46.585 12.375 45.9869 12.375 45.375C12.3741 44.5548 12.0478 43.7684 11.4678 43.1884C10.8879 42.6084 10.1015 42.2822 9.28125 42.2812ZM9.28125 46.4062C9.07729 46.4062 8.87791 46.3458 8.70832 46.2325C8.53873 46.1191 8.40655 45.9581 8.3285 45.7696C8.25045 45.5812 8.23003 45.3739 8.26982 45.1738C8.30961 44.9738 8.40782 44.79 8.55205 44.6458C8.69627 44.5016 8.88002 44.4034 9.08006 44.3636C9.28011 44.3238 9.48746 44.3442 9.67589 44.4223C9.86433 44.5003 10.0254 44.6325 10.1387 44.8021C10.252 44.9717 10.3125 45.171 10.3125 45.375C10.3122 45.6484 10.2034 45.9105 10.0101 46.1039C9.81679 46.2972 9.55466 46.4059 9.28125 46.4062Z" fill="#999999"/>
<path d="M48.4688 42.2813C47.8569 42.2812 47.2587 42.4627 46.75 42.8026C46.2412 43.1426 45.8447 43.6258 45.6105 44.1911C45.3763 44.7564 45.3151 45.3784 45.4344 45.9786C45.5538 46.5787 45.8485 47.1299 46.2811 47.5626C46.7138 47.9953 47.2651 48.2899 47.8652 48.4093C48.4653 48.5287 49.0874 48.4674 49.6527 48.2333C50.218 47.9991 50.7012 47.6026 51.0411 47.0938C51.3811 46.585 51.5625 45.9869 51.5625 45.375C51.5616 44.5548 51.2353 43.7684 50.6553 43.1884C50.0754 42.6084 49.289 42.2822 48.4688 42.2813ZM48.4688 46.4062C48.2648 46.4062 48.0654 46.3458 47.8958 46.2325C47.7262 46.1191 47.5941 45.9581 47.516 45.7696C47.4379 45.5812 47.4175 45.3739 47.4573 45.1738C47.4971 44.9738 47.5953 44.79 47.7395 44.6458C47.8838 44.5016 48.0675 44.4034 48.2676 44.3636C48.4676 44.3238 48.675 44.3442 48.8634 44.4223C49.0518 44.5003 49.2129 44.6325 49.3262 44.8021C49.4395 44.9717 49.5 45.171 49.5 45.375C49.4997 45.6484 49.3909 45.9105 49.1976 46.1039C49.0043 46.2972 48.7422 46.4059 48.4688 46.4062Z" fill="#999999"/>
<path d="M55.6875 45.375C55.6875 44.4167 55.4967 43.468 55.1261 42.5841C54.7556 41.7003 54.2129 40.8991 53.5295 40.2273C52.8461 39.5555 52.0358 39.0264 51.1458 38.671C50.2558 38.3156 49.3039 38.141 48.3457 38.1573C44.4332 38.2227 41.25 41.5062 41.25 45.4769V48.9412C38.425 48.1723 34.3049 47.4375 28.875 47.4375C23.445 47.4375 19.3249 48.1723 16.5 48.9412V45.375C16.5 44.4035 16.3038 43.4419 15.9233 42.5479C15.5428 41.6539 14.9858 40.846 14.2856 40.1724C13.5854 39.4989 12.7564 38.9736 11.8483 38.6281C10.9403 38.2826 9.97182 38.124 9.00097 38.1617C7.18672 38.2381 5.46734 38.9931 4.18333 40.2771C2.89932 41.5612 2.14433 43.2805 2.06788 45.0948C1.99905 46.8777 2.59257 48.6229 3.73405 49.9942C4.87553 51.3655 6.48418 52.2657 8.24997 52.5215V56.7188C8.25119 57.8124 8.68619 58.8609 9.45951 59.6342C10.2328 60.4076 11.2813 60.8426 12.375 60.8438V63.9375C12.375 64.211 12.4836 64.4733 12.677 64.6667C12.8704 64.8601 13.1327 64.9688 13.4062 64.9688H16.5C16.6915 64.9688 16.8792 64.9154 17.0421 64.8148C17.205 64.7141 17.3366 64.57 17.4223 64.3988L19.1998 60.8438H38.5502L40.3276 64.3988C40.4133 64.57 40.5449 64.7141 40.7078 64.8148C40.8707 64.9154 41.0585 64.9688 41.25 64.9688H44.3437C44.6172 64.9688 44.8795 64.8601 45.0729 64.6667C45.2663 64.4733 45.375 64.211 45.375 63.9375V60.8438C46.4686 60.8426 47.5171 60.4076 48.2904 59.6342C49.0637 58.8609 49.4987 57.8124 49.5 56.7188V52.5203C51.2172 52.2701 52.7871 51.4106 53.9231 50.0988C55.059 48.787 55.6853 47.1103 55.6875 45.375ZM15.8627 62.9063H14.4375V60.8438H16.8939L15.8627 62.9063ZM43.3125 62.9063H41.8873L40.856 60.8438H43.3125V62.9063ZM48.4687 50.5313C48.1952 50.5313 47.9329 50.6399 47.7395 50.8333C47.5461 51.0267 47.4375 51.289 47.4375 51.5625V56.7188C47.4368 57.2656 47.2193 57.7898 46.8327 58.1765C46.446 58.5631 45.9218 58.7806 45.375 58.7813H12.375C11.8282 58.7806 11.3039 58.5631 10.9173 58.1765C10.5306 57.7898 10.3131 57.2656 10.3125 56.7188V51.5625C10.3125 51.289 10.2038 51.0267 10.0104 50.8333C9.81702 50.6399 9.55472 50.5313 9.28122 50.5313C8.58709 50.5313 7.9001 50.3912 7.26144 50.1193C6.62277 49.8474 6.04558 49.4493 5.56446 48.949C5.08333 48.4487 4.70818 47.8563 4.46149 47.2075C4.21481 46.5587 4.10166 45.8668 4.12883 45.1732C4.18348 43.8779 4.72254 42.6503 5.63926 41.7336C6.55599 40.8169 7.78354 40.2778 9.07883 40.2232C9.77243 40.1959 10.4644 40.309 11.1132 40.5556C11.7621 40.8022 12.3544 41.1773 12.8548 41.6584C13.3552 42.1395 13.7533 42.7166 14.0253 43.3553C14.2972 43.9939 14.4374 44.6809 14.4375 45.375V49.5774C12.8118 50.1446 11.9576 50.614 11.8694 50.6637L12.8783 52.4626C12.9316 52.4329 18.3295 49.5 28.875 49.5C39.4204 49.5 44.8183 52.4329 44.8694 52.4614L45.8805 50.6637C45.7924 50.614 44.9381 50.144 43.3125 49.5774V45.4769C43.3125 42.6247 45.5859 40.2662 48.3802 40.2196C49.061 40.2078 49.7374 40.3309 50.3703 40.582C51.0033 40.833 51.5803 41.2069 52.0679 41.6821C52.5556 42.1573 52.9443 42.7244 53.2117 43.3506C53.479 43.9769 53.6197 44.6499 53.6255 45.3307C53.6314 46.0116 53.5023 46.6869 53.2458 47.3177C52.9892 47.9484 52.6103 48.5221 52.1308 49.0056C51.6514 49.4891 51.0809 49.8729 50.4524 50.1347C49.8238 50.3966 49.1496 50.5314 48.4687 50.5313Z" fill="#C3C3C3"/>
<path d="M10.3125 30.9375C10.3131 30.3907 10.5307 29.8665 10.9173 29.4798C11.304 29.0932 11.8282 28.8756 12.375 28.875H45.375C45.9218 28.8756 46.446 29.0932 46.8327 29.4798C47.2193 29.8665 47.4369 30.3907 47.4375 30.9375V36.0938H49.5V30.9375C49.4988 29.8439 49.0638 28.7954 48.2905 28.022C47.5171 27.2487 46.4686 26.8137 45.375 26.8125H12.375C11.2814 26.8137 10.2329 27.2487 9.45954 28.022C8.68622 28.7954 8.25123 29.8439 8.25 30.9375V36.0938H10.3125V30.9375Z" fill="black"/>
<path d="M22.6875 33H24.75V35.0625H22.6875V33Z" fill="black"/>
<path d="M27.8438 38.1562H29.9062V40.2188H27.8438V38.1562Z" fill="black"/>
<path d="M17.5312 38.1562H19.5938V40.2188H17.5312V38.1562Z" fill="black"/>
<path d="M22.6875 43.3125H24.75V45.375H22.6875V43.3125Z" fill="black"/>
<path d="M33 33H35.0625V35.0625H33V33Z" fill="black"/>
<path d="M38.1562 38.1562H40.2188V40.2188H38.1562V38.1562Z" fill="black"/>
<path d="M33 43.3125H35.0625V45.375H33V43.3125Z" fill="black"/>
<path d="M59.8125 1.03125H30.9375C29.8439 1.03248 28.7954 1.46747 28.022 2.24079C27.2487 3.01411 26.8137 4.06261 26.8125 5.15625V6.1875H28.875V5.15625C28.8756 4.60944 29.0932 4.08521 29.4798 3.69856C29.8665 3.3119 30.3907 3.0944 30.9375 3.09375H44.3438V24.75H46.4062V3.09375H59.8125C60.3593 3.0944 60.8835 3.3119 61.2702 3.69856C61.6568 4.08521 61.8744 4.60944 61.875 5.15625V56.7188C61.8744 57.2656 61.6568 57.7898 61.2702 58.1764C60.8835 58.5631 60.3593 58.7806 59.8125 58.7812H50.5312V60.8438H52.9877L54.7652 64.3987C54.8508 64.57 54.9825 64.7141 55.1454 64.8147C55.3083 64.9154 55.496 64.9687 55.6875 64.9688H58.7812C59.0548 64.9688 59.3171 64.8601 59.5105 64.6667C59.7038 64.4733 59.8125 64.211 59.8125 63.9375V60.8438C60.9061 60.8425 61.9546 60.4075 62.728 59.6342C63.5013 58.8609 63.9363 57.8124 63.9375 56.7188V5.15625C63.9363 4.06261 63.5013 3.01411 62.728 2.24079C61.9546 1.46747 60.9061 1.03248 59.8125 1.03125ZM57.75 62.9062H56.3248L55.2936 60.8438H57.75V62.9062Z" fill="black"/>
<path d="M9.28121 22.6875H18.5625V24.75H20.625V22.6875H29.9062C30.0489 22.6875 30.19 22.6579 30.3206 22.6006C30.4512 22.5432 30.5685 22.4594 30.6651 22.3545C30.7617 22.2495 30.8354 22.1256 30.8817 21.9907C30.9279 21.8557 30.9457 21.7127 30.9339 21.5705L29.9026 9.19553C29.8811 8.93776 29.7635 8.69749 29.5732 8.52236C29.3828 8.34722 29.1336 8.25001 28.875 8.25H20.625V6.1875H18.5625V8.25H10.3125C10.0538 8.25001 9.80459 8.34722 9.61425 8.52236C9.4239 8.69749 9.30632 8.93776 9.28482 9.19553L8.25357 21.5705C8.24171 21.7127 8.25947 21.8557 8.30574 21.9907C8.352 22.1256 8.42575 22.2495 8.52233 22.3545C8.61891 22.4594 8.73622 22.5432 8.86684 22.6006C8.99747 22.6579 9.13856 22.6875 9.28121 22.6875ZM11.2613 10.3125H27.9261L28.7855 20.625H10.4019L11.2613 10.3125Z" fill="#C3C3C3"/>
</svg>
