<svg width="66" height="66" viewBox="0 0 66 66" fill="none" xmlns="http://www.w3.org/2000/svg">
<path d="M52.5804 44.3438H59.8125" stroke="#C4C4C4" stroke-width="2" stroke-miterlimit="10"/>
<path d="M22.6875 44.3438H43.3125" stroke="#C4C4C4" stroke-width="2" stroke-miterlimit="10"/>
<path d="M6.1875 44.3438H13.4197" stroke="#C4C4C4" stroke-width="2" stroke-miterlimit="10"/>
<path d="M31.9997 25.7183L16.1782 57.3622C13.9559 61.8069 8.94506 64.1118 4.125 62.9062L25.3275 20.561" stroke="#212121" stroke-width="2" stroke-miterlimit="10"/>
<path d="M34.0003 25.7183L49.8228 57.3622C52.0441 61.8069 57.0549 64.1118 61.875 62.9062L40.6725 20.561" stroke="#212121" stroke-width="2" stroke-miterlimit="10"/>
<path d="M33 3.09375V9.28125" stroke="#C4C4C4" stroke-width="2" stroke-miterlimit="10" stroke-linecap="square"/>
<path d="M33 40.2188V48.4688" stroke="#C3C3C3" stroke-width="2" stroke-miterlimit="10" stroke-linecap="square"/>
<path d="M33 25.7812C37.5563 25.7812 41.25 22.0876 41.25 17.5312C41.25 12.9749 37.5563 9.28125 33 9.28125C28.4437 9.28125 24.75 12.9749 24.75 17.5312C24.75 22.0876 28.4437 25.7812 33 25.7812Z" stroke="#212121" stroke-width="2" stroke-miterlimit="10" stroke-linecap="square"/>
</svg>
